# xmcd
#
# Track frame offsets:
#	150
#	13792
#	26810
#	40092
#	52087
#	64342
#	76767
#	91702
#	103910
#	118140
#	131195
#	144167
#	157832
#	169137
#	181255
#	196102
#	209172
#	221415
#
# Disc length: 3151 seconds
#
# Revision: 2
# Processed by: cddbd v1.5.2PL0 Copyright (c) Steve Scherf et al.
# Submitted via: EasyCDDAExtractor 2010.6.0.0
#
DISCID=fd0c4d12
DTITLE=Molly O'Day - And The Cumberland Mountain Folks
DYEAR=1900
DGENRE=Country
TTITLE0=Mother's Gone But Not Forgotten
TTITLE1=The Evening Train
TTITLE2=This Is The End
TTITLE3=Fifteen Years Ago
TTITLE4=Poor Ellen Smith
TTITLE5=Coming Down From God
TTITLE6=Teardrops Falling In The Snow
TTITLE7=With You On My Mind
TTITLE8=If You See My Saviour
TTITLE9=Heaven's Radio
TTITLE10=When My Time Comes To Go
TTITLE11=Don't Sell Daddy Anymore Whiskey
TTITLE12=Higher In My Prayers
TTITLE13=Travelling The Highway Home
TTITLE14=It's Different Now
TTITLE15=When The Angels Rolling The Stone Away
TTITLE16=It's All Coming True
TTITLE17=When We See Our Redeemer's Face
EXTD=
EXTT0=
EXTT1=
EXTT2=
EXTT3=
EXTT4=
EXTT5=
EXTT6=
EXTT7=
EXTT8=
EXTT9=
EXTT10=
EXTT11=
EXTT12=
EXTT13=
EXTT14=
EXTT15=
EXTT16=
EXTT17=
PLAYORDER=
